# xmcd
#
# Track frame offsets:
#	150
#	20222
#	39117
#	59829
#	73689
#	90737
#	107485
#	126145
#	143703
#	163786
#	182661
#	203374
#	217234
#	234202
#	250875
#	269540
#	298543
#
# Disc length: 3992 seconds
#
# Revision: 0
# Processed by: cddbd v1.5PL3 Copyright (c) Steve Scherf et al.
# Submitted via: audiograbber 1.83.01
#
DISCID=fc0f9611
DTITLE=Various Artist - Karaoke SC1007
DYEAR=1900
DGENRE=
TTITLE0=Sara Evans - I Could Not Ask For More
TTITLE1=Jamie O'neal - There Is No Arizona
TTITLE2=Lee Ann Womack - Ashes By Now
TTITLE3=Trick Pony - Pour Me
TTITLE4=Dixie Chicks - Without You
TTITLE5=Tammy Cochran - Angels In Waiting
TTITLE6=Sara Evans - Born To Fly
TTITLE7=Trisha Yearwood - I Would've Loved You Anyway
TTITLE8=Sara Evans (Vocal) - I Could Not Ask For More
TTITLE9=Jamie O'neal (Vocal) - There Is No Arizona
TTITLE10=Lee Ann Womack (Vocal) - Ashes By Now
TTITLE11=Trick Pony (Vocal) - Pour Me
TTITLE12=Dixie Chicks (Vocal) - Without You
TTITLE13=Tammy Cochran (Vocal) - Angels In Waiting
TTITLE14=Sara Evans (Vocal) - Born To Fly
TTITLE15=Trisha Yearwood (Vocal) - I Would've Loved You Anyway
TTITLE16=DATA - Data Track
EXTD=
EXTT0=
EXTT1=
EXTT2=
EXTT3=
EXTT4=
EXTT5=
EXTT6=
EXTT7=
EXTT8=
EXTT9=
EXTT10=
EXTT11=
EXTT12=
EXTT13=
EXTT14=
EXTT15=
EXTT16=
PLAYORDER=
